<svg width="1084" height="753" xmlns="http://www.w3.org/2000/svg" xmlns:xlink="http://www.w3.org/1999/xlink" xml:space="preserve" overflow="hidden"><g transform="translate(-945 -416)"><rect x="948.5" y="419.5" width="1077" height="746" stroke="#042433" stroke-width="6.875" stroke-miterlimit="8" fill="#00B0F0"/><path d="M1427.5 792C1427.5 676.296 1530.25 582.5 1657 582.5 1783.75 582.5 1886.5 676.296 1886.5 792 1886.5 907.704 1783.75 1001.5 1657 1001.5 1530.25 1001.5 1427.5 907.704 1427.5 792Z" stroke="#042433" stroke-width="6.875" stroke-miterlimit="8" fill="#FF0000" fill-rule="evenodd" fill-opacity="0.368627"/><path d="M1112.5 792C1112.5 676.296 1215.25 582.5 1342 582.5 1468.75 582.5 1571.5 676.296 1571.5 792 1571.5 907.704 1468.75 1001.5 1342 1001.5 1215.25 1001.5 1112.5 907.704 1112.5 792Z" stroke="#042433" stroke-width="6.875" stroke-miterlimit="8" fill="#FF0000" fill-rule="evenodd" fill-opacity="0.368627"/><path d="M1220.44 450.119C1228.33 452.2 1234.39 456.691 1238.62 463.595 1242.84 470.498 1244.96 478.826 1244.96 488.58 1244.96 498.36 1242.85 506.689 1238.64 513.565 1234.42 520.441 1228.36 524.919 1220.44 527L1219.47 523.879C1225.71 521.799 1230.35 517.692 1233.39 511.559 1236.43 505.426 1237.95 497.631 1237.95 488.174 1237.95 479.042 1236.43 471.457 1233.41 465.418 1230.38 459.38 1225.69 455.32 1219.34 453.24ZM1012.98 450.119 1014.08 453.24C1007.75 455.32 1003.07 459.38 1000.03 465.418 996.993 471.457 995.473 479.042 995.473 488.174 995.473 497.631 996.993 505.426 1000.03 511.559 1003.07 517.692 1007.71 521.799 1013.95 523.879L1012.98 527C1005.06 524.919 998.999 520.441 994.784 513.565 990.569 506.689 988.462 498.36 988.462 488.58 988.462 478.826 990.576 470.498 994.805 463.595 999.033 456.691 1005.09 452.2 1012.98 450.119Z" fill-rule="evenodd"/><path d="M1049.33 464.816 1034.9 490.349 1050.74 490.349 1050.06 477.299C1049.97 475.516 1049.91 473.286 1049.85 470.612 1049.8 467.937 1049.77 466.005 1049.77 464.816ZM1049.57 456.265 1055.69 456.265 1058.61 501.453C1058.74 503.587 1058.98 505.256 1059.34 506.458 1059.69 507.66 1060.17 508.552 1060.77 509.133 1061.38 509.714 1062.27 510.085 1063.43 510.247L1062.98 512.233 1046.12 512.233 1046.57 510.247C1048.16 510.112 1049.35 509.491 1050.14 508.383 1050.92 507.275 1051.31 505.33 1051.31 502.547 1051.31 501.494 1051.27 500.345 1051.19 499.102L1050.91 493.874 1033.07 493.874 1030.85 497.846C1029.79 499.71 1029.02 501.311 1028.54 502.649 1028.05 503.986 1027.81 505.168 1027.81 506.195 1027.81 508.464 1029.17 509.815 1031.9 510.247L1031.45 512.233 1014.88 512.233 1015.32 510.247C1016.16 510.139 1016.95 509.808 1017.69 509.255 1018.44 508.701 1019.23 507.863 1020.07 506.742 1020.9 505.621 1022.08 503.763 1023.59 501.169Z" fill-rule="evenodd"/><text fill="#000000" fill-opacity="0" font-family="Arial,Arial_MSFontService,sans-serif" font-size="55.9683" x="1014.88" y="505.237">𝐴</text><path d="M1093.16 464.492 1099.73 464.492 1099.73 486.417C1099.73 493.496 1101.11 498.731 1103.88 502.122 1106.65 505.512 1110.33 507.208 1114.92 507.208 1119.52 507.208 1123.2 505.512 1125.99 502.122 1128.77 498.731 1130.16 493.496 1130.16 486.417L1130.16 464.492 1136.73 464.492 1136.73 487.957C1136.73 495.847 1134.77 501.966 1130.85 506.316 1126.93 510.666 1121.62 512.841 1114.92 512.841 1108.22 512.841 1102.92 510.619 1099.02 506.174 1095.11 501.73 1093.16 495.09 1093.16 486.255Z" fill-rule="evenodd"/><text fill="#000000" fill-opacity="0" font-family="Arial,Arial_MSFontService,sans-serif" font-size="48.3491" x="1093.16" y="506.798">∪</text><path d="M1180.28 485.283 1175.26 508.505C1176.91 508.613 1178.93 508.667 1181.34 508.667 1185.44 508.667 1188.53 508.201 1190.6 507.269 1192.66 506.337 1194.44 504.682 1195.93 502.304 1197.41 499.926 1198.16 496.995 1198.16 493.51 1198.16 490.781 1197.26 488.727 1195.46 487.349 1193.66 485.972 1190.98 485.283 1187.42 485.283ZM1192.28 460.48C1189.93 460.48 1187.74 460.52 1185.71 460.601L1181.13 481.716 1186.85 481.716C1190.04 481.716 1192.57 481.46 1194.45 480.946 1196.33 480.433 1197.98 479.514 1199.41 478.19 1200.84 476.866 1201.88 475.414 1202.53 473.834 1203.18 472.253 1203.51 470.423 1203.51 468.342 1203.51 467.18 1203.3 466.093 1202.9 465.08 1202.49 464.067 1201.8 463.202 1200.81 462.486 1199.82 461.77 1198.69 461.257 1197.41 460.946 1196.12 460.635 1194.41 460.48 1192.28 460.48ZM1174.08 456.913 1194.14 456.913C1198.2 456.913 1201.45 457.339 1203.89 458.19 1206.34 459.041 1208.13 460.291 1209.28 461.939 1210.43 463.587 1211 465.654 1211 468.14 1211 471.679 1209.92 474.766 1207.76 477.4 1205.6 480.034 1202.38 482.054 1198.12 483.459L1198.03 483.905C1200.55 484.904 1202.48 486.33 1203.83 488.18 1205.18 490.031 1205.86 492.132 1205.86 494.482 1205.86 498.076 1205.03 501.149 1203.38 503.702 1201.74 506.255 1199.26 508.316 1195.97 509.883 1192.67 511.45 1187.85 512.233 1181.5 512.233L1163.46 512.233 1163.91 510.247C1164.94 510.085 1165.71 509.822 1166.22 509.457 1166.73 509.092 1167.17 508.586 1167.52 507.937 1167.87 507.289 1168.19 506.499 1168.49 505.567 1168.79 504.634 1169.23 502.831 1169.83 500.156L1176.72 468.95C1177.31 466.248 1177.61 464.114 1177.61 462.547 1177.61 461.223 1177.3 460.304 1176.68 459.791 1176.06 459.278 1175.04 458.98 1173.64 458.899Z" fill-rule="evenodd"/><text fill="#000000" fill-opacity="0" font-family="Arial,Arial_MSFontService,sans-serif" font-size="55.3198" x="1163.46" y="505.318">𝐵</text><path d="M1262.03 450.974 1269.59 450.974 1269.59 453.26 1259.84 476.726 1256.41 475.701Z" fill-rule="evenodd"/><text fill="#000000" fill-opacity="0" font-family="Arial,Arial_MSFontService,sans-serif" font-size="25.752" x="1256.41" y="473.507">′</text><path d="M1305.61 494.239 1355.54 494.239 1355.54 499.629 1305.61 499.629ZM1305.61 477.42 1355.54 477.42 1355.54 482.81 1305.61 482.81Z" fill-rule="evenodd"/><text fill="#000000" fill-opacity="0" font-family="Arial,Arial_MSFontService,sans-serif" font-size="22.209" x="1305.61" y="496.853">=</text><path d="M1418.28 464.816 1403.86 490.349 1419.7 490.349 1419.01 477.299C1418.93 475.516 1418.87 473.286 1418.81 470.612 1418.76 467.937 1418.73 466.005 1418.73 464.816ZM1418.53 456.265 1424.65 456.265 1427.57 501.453C1427.7 503.587 1427.94 505.256 1428.29 506.458 1428.65 507.66 1429.13 508.552 1429.73 509.133 1430.34 509.714 1431.23 510.085 1432.39 510.247L1431.94 512.233 1415.08 512.233 1415.53 510.247C1417.12 510.112 1418.31 509.491 1419.09 508.383 1419.88 507.275 1420.27 505.33 1420.27 502.547 1420.27 501.494 1420.23 500.345 1420.15 499.102L1419.86 493.874 1402.03 493.874 1399.8 497.846C1398.75 499.71 1397.98 501.311 1397.49 502.649 1397.01 503.986 1396.76 505.168 1396.76 506.195 1396.76 508.464 1398.13 509.815 1400.86 510.247L1400.41 512.233 1383.84 512.233 1384.28 510.247C1385.12 510.139 1385.91 509.808 1386.65 509.255 1387.4 508.701 1388.19 507.863 1389.02 506.742 1389.86 505.621 1391.04 503.763 1392.55 501.169Z" fill-rule="evenodd"/><text fill="#000000" fill-opacity="0" font-family="Arial,Arial_MSFontService,sans-serif" font-size="55.9683" x="1383.84" y="505.237">𝐴</text><path d="M1445.69 450.974 1453.25 450.974 1453.25 453.26 1443.49 476.726 1440.06 475.701Z" fill-rule="evenodd"/><text fill="#000000" fill-opacity="0" font-family="Arial,Arial_MSFontService,sans-serif" font-size="25.752" x="1440.06" y="473.507">′</text><path d="M1506.89 463.884C1513.59 463.884 1518.9 466.059 1522.82 470.409 1526.73 474.759 1528.69 480.879 1528.69 488.768L1528.69 512.233 1522.13 512.233 1522.13 490.308C1522.13 483.229 1520.74 477.994 1517.95 474.604 1515.17 471.213 1511.48 469.517 1506.89 469.517 1502.3 469.517 1498.62 471.213 1495.85 474.604 1493.08 477.994 1491.69 483.229 1491.69 490.308L1491.69 512.233 1485.13 512.233 1485.13 490.47C1485.13 481.635 1487.08 474.995 1490.98 470.551 1494.89 466.106 1500.19 463.884 1506.89 463.884Z" fill-rule="evenodd"/><text fill="#000000" fill-opacity="0" font-family="Arial,Arial_MSFontService,sans-serif" font-size="48.3491" x="1485.13" y="506.19">∩</text><path d="M1572.25 485.283 1567.22 508.505C1568.87 508.613 1570.9 508.667 1573.3 508.667 1577.41 508.667 1580.5 508.201 1582.56 507.269 1584.63 506.337 1586.41 504.682 1587.89 502.304 1589.38 499.926 1590.12 496.995 1590.12 493.51 1590.12 490.781 1589.22 488.727 1587.43 487.349 1585.63 485.972 1582.95 485.283 1579.38 485.283ZM1584.25 460.48C1581.9 460.48 1579.71 460.52 1577.68 460.601L1573.1 481.716 1578.82 481.716C1582 481.716 1584.54 481.46 1586.41 480.946 1588.29 480.433 1589.95 479.514 1591.38 478.19 1592.81 476.866 1593.85 475.414 1594.5 473.834 1595.15 472.253 1595.47 470.423 1595.47 468.342 1595.47 467.18 1595.27 466.093 1594.86 465.08 1594.46 464.067 1593.76 463.202 1592.78 462.486 1591.79 461.77 1590.66 461.257 1589.37 460.946 1588.09 460.635 1586.38 460.48 1584.25 460.48ZM1566.05 456.913 1586.11 456.913C1590.16 456.913 1593.41 457.339 1595.86 458.19 1598.3 459.041 1600.1 460.291 1601.25 461.939 1602.4 463.587 1602.97 465.654 1602.97 468.14 1602.97 471.679 1601.89 474.766 1599.73 477.4 1597.57 480.034 1594.35 482.054 1590.08 483.459L1590 483.905C1592.51 484.904 1594.45 486.33 1595.8 488.18 1597.15 490.031 1597.82 492.132 1597.82 494.482 1597.82 498.076 1597 501.149 1595.35 503.702 1593.7 506.255 1591.23 508.316 1587.93 509.883 1584.64 511.45 1579.82 512.233 1573.47 512.233L1555.43 512.233 1555.88 510.247C1556.9 510.085 1557.67 509.822 1558.19 509.457 1558.7 509.092 1559.13 508.586 1559.48 507.937 1559.84 507.289 1560.16 506.499 1560.46 505.567 1560.75 504.634 1561.2 502.831 1561.79 500.156L1568.68 468.95C1569.28 466.248 1569.58 464.114 1569.58 462.547 1569.58 461.223 1569.26 460.304 1568.64 459.791 1568.02 459.278 1567.01 458.98 1565.6 458.899Z" fill-rule="evenodd"/><text fill="#000000" fill-opacity="0" font-family="Arial,Arial_MSFontService,sans-serif" font-size="55.3198" x="1555.43" y="505.318">𝐵</text><path d="M1619.76 450.974 1627.32 450.974 1627.32 453.26 1617.56 476.726 1614.14 475.701Z" fill-rule="evenodd"/><text fill="#000000" fill-opacity="0" font-family="Arial,Arial_MSFontService,sans-serif" font-size="25.752" x="1614.14" y="473.507">′</text></g></svg>