<svg width="2375" height="1163" xmlns="http://www.w3.org/2000/svg" xmlns:xlink="http://www.w3.org/1999/xlink" xml:space="preserve" overflow="hidden"><g transform="translate(-1203 -191)"><rect x="1206.5" y="396.5" width="1869" height="922" stroke="#042433" stroke-width="6.875" stroke-miterlimit="8" fill="#00B0F0"/><path d="M2003.5 633C2003.5 517.296 2204.75 423.5 2453 423.5 2701.25 423.5 2902.5 517.296 2902.5 633 2902.5 748.704 2701.25 842.5 2453 842.5 2204.75 842.5 2003.5 748.704 2003.5 633Z" stroke="#042433" stroke-width="6.875" stroke-miterlimit="8" fill="#FF0000" fill-rule="evenodd" fill-opacity="0.368627"/><path d="M1378.5 676C1378.5 560.296 1547.51 466.5 1756 466.5 1964.49 466.5 2133.5 560.296 2133.5 676 2133.5 791.704 1964.49 885.5 1756 885.5 1547.51 885.5 1378.5 791.704 1378.5 676Z" stroke="#042433" stroke-width="6.875" stroke-miterlimit="8" fill="#FF0000" fill-rule="evenodd" fill-opacity="0.368627"/><path d="M1629.5 876.5C1629.5 721.86 1759.34 596.5 1919.5 596.5 2079.66 596.5 2209.5 721.86 2209.5 876.5 2209.5 1031.14 2079.66 1156.5 1919.5 1156.5 1759.34 1156.5 1629.5 1031.14 1629.5 876.5Z" stroke="#042433" stroke-width="6.875" stroke-miterlimit="8" fill="#FF0000" fill-rule="evenodd" fill-opacity="0.368627"/><path d="M1883.86 1158.4C1886.32 1158.4 1888.59 1158.55 1890.69 1158.85 1892.78 1159.15 1895.11 1159.69 1897.68 1160.47L1895.25 1171.45 1891.36 1171.45C1891.14 1168.13 1890.42 1165.73 1889.19 1164.26 1887.96 1162.79 1885.98 1162.05 1883.25 1162.05 1879.52 1162.05 1876.06 1163.92 1872.86 1167.64 1869.65 1171.37 1867.12 1176.3 1865.26 1182.42 1863.39 1188.54 1862.46 1194.22 1862.46 1199.46 1862.46 1203.56 1863.19 1206.59 1864.65 1208.54 1866.11 1210.48 1868.35 1211.45 1871.38 1211.45 1873.4 1211.45 1875.17 1211.15 1876.69 1210.54 1878.2 1209.93 1879.62 1208.91 1880.94 1207.46 1882.27 1206.02 1883.58 1204 1884.87 1201.4L1888.76 1201.4 1886.29 1212.91C1881.24 1214.32 1875.94 1215.02 1870.4 1215.02 1865.32 1215.02 1861.46 1213.56 1858.81 1210.64 1856.17 1207.73 1854.84 1203.46 1854.84 1197.84 1854.84 1193.86 1855.55 1189.29 1856.97 1184.1 1858.39 1178.91 1860.39 1174.36 1862.99 1170.44 1865.58 1166.52 1868.65 1163.54 1872.19 1161.48 1875.73 1159.43 1879.62 1158.4 1883.86 1158.4Z" fill-rule="evenodd"/><text fill="#000000" fill-opacity="0" font-family="Arial,Arial_MSFontService,sans-serif" font-size="56.6167" x="1854.84" y="1207.94">𝐶</text><path d="M1911.68 1193.48 1913.47 1193.48C1913.43 1194.56 1913.4 1195.52 1913.38 1196.37 1913.36 1197.22 1913.34 1198.04 1913.33 1198.84 1913.32 1199.64 1913.32 1200.43 1913.32 1201.22L1913.32 1223.48C1913.32 1224.09 1913.34 1224.61 1913.38 1225.05 1913.42 1225.49 1913.48 1225.86 1913.57 1226.16 1913.66 1226.46 1913.77 1226.72 1913.92 1226.94 1914.07 1227.15 1914.24 1227.34 1914.43 1227.49 1914.67 1227.73 1914.98 1227.91 1915.37 1228.04 1915.76 1228.16 1916.26 1228.27 1916.86 1228.36 1917.47 1228.45 1918.2 1228.52 1919.05 1228.56 1919.9 1228.61 1920.92 1228.65 1922.11 1228.67L1922.11 1231.22 1898.88 1231.22 1898.88 1228.67C1900.03 1228.63 1901.01 1228.58 1901.81 1228.53 1902.61 1228.49 1903.29 1228.42 1903.86 1228.33 1904.42 1228.24 1904.88 1228.14 1905.22 1228.04 1905.56 1227.93 1905.86 1227.8 1906.11 1227.64 1906.39 1227.47 1906.62 1227.28 1906.82 1227.07 1907.01 1226.86 1907.17 1226.61 1907.28 1226.29 1907.4 1225.98 1907.49 1225.6 1907.56 1225.15 1907.63 1224.7 1907.67 1224.15 1907.67 1223.48L1907.67 1202.48C1907.67 1201.71 1907.52 1201.18 1907.23 1200.86 1906.93 1200.55 1906.51 1200.4 1905.97 1200.4 1905.36 1200.4 1904.46 1200.71 1903.27 1201.33 1902.08 1201.96 1900.54 1202.89 1898.64 1204.12 1898.39 1203.67 1898.15 1203.22 1897.94 1202.77 1897.72 1202.32 1897.5 1201.86 1897.27 1201.39 1899.69 1200.06 1902.08 1198.74 1904.46 1197.42 1906.83 1196.1 1909.24 1194.79 1911.68 1193.48Z" fill-rule="evenodd"/><text fill="#000000" fill-opacity="0" font-family="Arial,Arial_MSFontService,sans-serif" font-size="37.7344" x="1897.27" y="1226.5">1</text><path d="M2012.5 779.5C2012.5 624.86 2142.34 499.5 2302.5 499.5 2462.66 499.5 2592.5 624.86 2592.5 779.5 2592.5 934.14 2462.66 1059.5 2302.5 1059.5 2142.34 1059.5 2012.5 934.14 2012.5 779.5Z" stroke="#042433" stroke-width="6.875" stroke-miterlimit="8" fill="#FF0000" fill-rule="evenodd" fill-opacity="0.368627"/><path d="M2484.89 1012.65C2487.35 1012.65 2489.63 1012.8 2491.72 1013.09 2493.81 1013.39 2496.15 1013.93 2498.71 1014.71L2496.28 1025.7 2492.39 1025.7C2492.17 1022.37 2491.45 1019.98 2490.22 1018.5 2488.99 1017.03 2487.01 1016.3 2484.28 1016.3 2480.56 1016.3 2477.09 1018.16 2473.89 1021.89 2470.69 1025.62 2468.15 1030.54 2466.29 1036.66 2464.43 1042.78 2463.49 1048.46 2463.49 1053.7 2463.49 1057.81 2464.22 1060.84 2465.68 1062.78 2467.14 1064.73 2469.38 1065.7 2472.41 1065.7 2474.44 1065.7 2476.21 1065.39 2477.72 1064.79 2479.23 1064.18 2480.65 1063.15 2481.97 1061.71 2483.3 1060.26 2484.61 1058.24 2485.91 1055.65L2489.8 1055.65 2487.32 1067.16C2482.27 1068.56 2476.98 1069.26 2471.44 1069.26 2466.36 1069.26 2462.49 1067.81 2459.85 1064.89 2457.2 1061.97 2455.87 1057.7 2455.87 1052.08 2455.87 1048.11 2456.58 1043.53 2458 1038.34 2459.42 1033.15 2461.43 1028.6 2464.02 1024.68 2466.61 1020.77 2469.68 1017.78 2473.22 1015.73 2476.76 1013.67 2480.65 1012.65 2484.89 1012.65Z" fill-rule="evenodd"/><text fill="#000000" fill-opacity="0" font-family="Arial,Arial_MSFontService,sans-serif" font-size="56.6167" x="2455.87" y="1062.19">𝐶</text><path d="M2512.33 1047.52C2514.36 1047.52 2516.09 1047.75 2517.53 1048.21 2518.96 1048.67 2520.13 1049.29 2521.03 1050.07 2521.93 1050.85 2522.58 1051.79 2522.98 1052.88 2523.38 1053.98 2523.58 1055.16 2523.58 1056.43 2523.58 1057.19 2523.53 1057.9 2523.42 1058.55 2523.31 1059.21 2523.12 1059.85 2522.86 1060.48 2522.6 1061.12 2522.25 1061.76 2521.82 1062.4 2521.39 1063.05 2520.85 1063.73 2520.21 1064.45 2519.72 1065.08 2519.09 1065.8 2518.31 1066.62 2517.52 1067.44 2516.67 1068.32 2515.74 1069.26 2514.81 1070.2 2513.84 1071.17 2512.83 1072.19 2511.81 1073.2 2510.82 1074.21 2509.87 1075.21 2508.91 1076.2 2508.03 1077.17 2507.23 1078.11 2506.43 1079.04 2505.78 1079.9 2505.27 1080.68L2516.11 1080.68C2517.03 1080.68 2517.76 1080.65 2518.31 1080.58 2518.85 1080.51 2519.31 1080.36 2519.67 1080.13 2520.03 1079.89 2520.34 1079.54 2520.59 1079.06 2520.84 1078.58 2521.14 1077.92 2521.47 1077.08L2524.19 1077.08C2524.1 1078.47 2524 1079.86 2523.92 1081.27 2523.83 1082.68 2523.74 1084.07 2523.64 1085.46L2498.82 1085.46 2498.82 1083.94C2499.29 1082.88 2499.84 1081.84 2500.46 1080.82 2501.09 1079.79 2501.79 1078.75 2502.57 1077.7 2503.35 1076.64 2504.24 1075.55 2505.24 1074.43 2506.24 1073.31 2507.34 1072.14 2508.55 1070.93 2510.39 1069.09 2511.88 1067.53 2513.03 1066.23 2514.18 1064.93 2515.09 1063.77 2515.76 1062.76 2516.42 1061.74 2516.87 1060.8 2517.12 1059.94 2517.36 1059.08 2517.49 1058.17 2517.49 1057.19 2517.49 1056.19 2517.34 1055.27 2517.06 1054.43 2516.78 1053.59 2516.37 1052.88 2515.84 1052.3 2515.32 1051.71 2514.65 1051.25 2513.84 1050.92 2513.03 1050.59 2512.09 1050.42 2511.04 1050.42 2509.22 1050.42 2507.7 1050.91 2506.47 1051.9 2505.24 1052.89 2504.28 1054.32 2503.6 1056.19L2499.76 1056.19 2499.76 1050.48C2502.26 1049.44 2504.56 1048.69 2506.66 1048.22 2508.76 1047.76 2510.65 1047.52 2512.33 1047.52Z" fill-rule="evenodd"/><text fill="#000000" fill-opacity="0" font-family="Arial,Arial_MSFontService,sans-serif" font-size="37.9395" x="2498.82" y="1080.72">2</text><path d="M2943.36 517.15C2945.82 517.15 2948.1 517.299 2950.19 517.596 2952.28 517.893 2954.61 518.434 2957.18 519.217L2954.75 530.2 2950.86 530.2C2950.64 526.877 2949.92 524.479 2948.69 523.007 2947.46 521.534 2945.48 520.798 2942.75 520.798 2939.02 520.798 2935.56 522.662 2932.36 526.391 2929.16 530.119 2926.62 535.043 2924.76 541.163 2922.89 547.283 2921.96 552.963 2921.96 558.205 2921.96 562.311 2922.69 565.337 2924.15 567.283 2925.61 569.228 2927.85 570.201 2930.88 570.201 2932.9 570.201 2934.67 569.897 2936.19 569.289 2937.7 568.681 2939.12 567.654 2940.44 566.209 2941.77 564.763 2943.08 562.744 2944.37 560.15L2948.26 560.15 2945.79 571.66C2940.74 573.065 2935.44 573.767 2929.91 573.767 2924.83 573.767 2920.96 572.308 2918.31 569.39 2915.67 566.472 2914.34 562.203 2914.34 556.584 2914.34 552.612 2915.05 548.032 2916.47 542.845 2917.89 537.657 2919.9 533.105 2922.49 529.187 2925.08 525.269 2928.15 522.284 2931.69 520.231 2935.23 518.177 2939.12 517.15 2943.36 517.15Z" fill-rule="evenodd"/><text fill="#000000" fill-opacity="0" font-family="Arial,Arial_MSFontService,sans-serif" font-size="56.6167" x="2914.34" y="566.69">𝐶</text><path d="M2970.74 552.023C2972.3 552.023 2973.76 552.189 2975.12 552.521 2976.48 552.853 2977.65 553.356 2978.65 554.03 2979.64 554.704 2980.42 555.544 2980.98 556.549 2981.53 557.555 2981.81 558.722 2981.81 560.05 2981.81 561.3 2981.64 562.404 2981.29 563.361 2980.93 564.318 2980.39 565.187 2979.66 565.968 2978.93 566.75 2978.03 567.458 2976.96 568.092 2975.9 568.727 2974.67 569.337 2973.29 569.923L2973.29 570.275C2974.6 570.509 2975.82 570.885 2976.95 571.403 2978.08 571.92 2979.07 572.575 2979.92 573.366 2980.77 574.157 2981.44 575.07 2981.93 576.105 2982.42 577.14 2982.66 578.283 2982.66 579.533 2982.66 581.095 2982.37 582.545 2981.78 583.883 2981.2 585.221 2980.32 586.378 2979.15 587.355 2977.97 588.332 2976.53 589.093 2974.81 589.64 2973.09 590.187 2971.08 590.461 2968.78 590.461 2966.96 590.461 2965.11 590.28 2963.24 589.919 2961.36 589.557 2959.59 589.084 2957.91 588.498L2957.91 582.169 2961.69 582.169C2962 583.146 2962.37 583.981 2962.8 584.674 2963.23 585.368 2963.73 585.934 2964.31 586.374 2964.88 586.813 2965.55 587.13 2966.3 587.326 2967.05 587.521 2967.91 587.619 2968.86 587.619 2971.38 587.619 2973.29 587.018 2974.59 585.817 2975.89 584.616 2976.54 582.794 2976.54 580.353 2976.54 577.755 2975.68 575.788 2973.98 574.45 2972.27 573.112 2969.73 572.443 2966.37 572.443L2963.8 572.443 2963.8 569.63C2965.85 569.533 2967.62 569.245 2969.11 568.766 2970.61 568.288 2971.85 567.668 2972.85 566.906 2973.84 566.144 2974.59 565.255 2975.07 564.24 2975.56 563.224 2975.81 562.14 2975.81 560.988 2975.81 559.113 2975.25 557.633 2974.14 556.549 2973.02 555.465 2971.41 554.923 2969.3 554.923 2967.53 554.923 2966.04 555.412 2964.84 556.388 2963.63 557.365 2962.71 558.82 2962.07 560.753L2958.35 560.753 2958.35 554.982C2960.65 554.005 2962.82 553.268 2964.86 552.77 2966.91 552.272 2968.86 552.023 2970.74 552.023Z" fill-rule="evenodd"/><text fill="#000000" fill-opacity="0" font-family="Arial,Arial_MSFontService,sans-serif" font-size="38.4375" x="2957.91" y="585.656">3</text><path d="M1386.47 460.192C1388.92 460.192 1391.2 460.34 1393.29 460.637 1395.39 460.935 1397.72 461.475 1400.29 462.258L1397.85 473.241 1393.96 473.241C1393.75 469.918 1393.02 467.52 1391.79 466.048 1390.57 464.575 1388.59 463.839 1385.86 463.839 1382.13 463.839 1378.66 465.703 1375.46 469.432 1372.26 473.16 1369.73 478.084 1367.86 484.204 1366 490.324 1365.07 496.004 1365.07 501.246 1365.07 505.353 1365.8 508.379 1367.26 510.324 1368.71 512.269 1370.96 513.242 1373.98 513.242 1376.01 513.242 1377.78 512.938 1379.29 512.33 1380.81 511.722 1382.22 510.695 1383.55 509.25 1384.87 507.804 1386.18 505.785 1387.48 503.191L1391.37 503.191 1388.9 514.701C1383.84 516.106 1378.55 516.808 1373.01 516.808 1367.93 516.808 1364.07 515.349 1361.42 512.431 1358.77 509.513 1357.45 505.244 1357.45 499.625 1357.45 495.653 1358.16 491.073 1359.58 485.886 1360.99 480.698 1363 476.146 1365.59 472.228 1368.19 468.311 1371.25 465.325 1374.79 463.272 1378.33 461.218 1382.22 460.192 1386.47 460.192Z" fill-rule="evenodd"/><text fill="#000000" fill-opacity="0" font-family="Arial,Arial_MSFontService,sans-serif" font-size="56.6167" x="1357.45" y="509.731">𝐶</text><path d="M1415.28 502.33C1413.4 505.045 1411.53 507.74 1409.67 510.416 1407.8 513.091 1405.92 515.777 1404.03 518.472L1404.03 518.824 1415.28 518.824 1415.28 512.935C1415.28 512.271 1415.29 511.451 1415.31 510.474 1415.33 509.498 1415.35 508.506 1415.38 507.501 1415.41 506.495 1415.45 505.538 1415.48 504.63 1415.52 503.721 1415.56 502.955 1415.6 502.33ZM1416.13 495.474 1420.79 495.474 1420.79 518.824 1421.31 518.824C1422.12 518.824 1422.76 518.785 1423.26 518.707 1423.76 518.629 1424.16 518.467 1424.46 518.223 1424.77 517.979 1425.02 517.637 1425.23 517.198 1425.43 516.758 1425.65 516.187 1425.88 515.484L1428.38 515.484C1428.32 516.558 1428.25 517.623 1428.18 518.677 1428.12 519.732 1428.05 520.806 1427.99 521.9L1420.79 521.9 1420.79 525.738C1420.79 526.871 1420.81 527.75 1420.86 528.375 1420.91 529 1421.06 529.488 1421.3 529.839 1421.54 530.191 1421.91 530.455 1422.38 530.63 1422.86 530.806 1423.53 531.011 1424.39 531.246L1424.39 533.004 1411.73 533.004 1411.73 531.246C1412.32 531.089 1412.82 530.948 1413.23 530.821 1413.64 530.694 1413.98 530.547 1414.25 530.381 1414.53 530.215 1414.73 530.02 1414.85 529.796 1414.98 529.571 1415.08 529.288 1415.15 528.946 1415.22 528.604 1415.26 528.174 1415.26 527.657 1415.27 527.139 1415.28 526.5 1415.28 525.738L1415.28 521.9 1398.79 521.9 1398.79 519.586C1401.7 515.543 1404.59 511.524 1407.46 507.53 1410.33 503.536 1413.22 499.517 1416.13 495.474Z" fill-rule="evenodd"/><text fill="#000000" fill-opacity="0" font-family="Arial,Arial_MSFontService,sans-serif" font-size="37.5293" x="1398.79" y="528.312">4</text><text fill="#595959" font-family="Aptos,Aptos_MSFontService,sans-serif" font-style="italic" font-weight="400" font-size="83" transform="matrix(1 0 0 1 1324.91 1151)">0000</text><path d="M2076.54 710.063 2103.03 710.338 2129.52 711.152 2155.89 712.488 2182.11 714.328 2208.13 716.655 2233.88 719.452 2259.32 722.7 2284.4 726.383 2309.07 730.484 2333.27 734.985 2356.96 739.87 2380.08 745.12 2402.58 750.719 2424.41 756.65 2445.52 762.896 2465.86 769.44 2485.38 776.265 2504.02 783.355 2521.74 790.694 2538.49 798.266 2554.21 806.055 2568.86 814.047 2582.38 822.229 2594.73 830.587 2605.86 839.112 2615.71 847.794 2624.24 856.63 2631.38 865.616 2637.05 874.699 2639.36 879.371 2641.25 884.029 2642.74 888.72 2643.82 893.439 2644.48 898.181 2644.69 902.776 2644.9 907.216 2644.87 906.905 2645.48 911.342 2645.43 911.046 2646.44 915.479 2646.36 915.204 2647.77 919.63 2647.68 919.378 2649.48 923.795 2649.37 923.567 2651.55 927.974 2651.39 927.677 2656.86 936.45 2656.63 936.13 2663.55 944.833 2663.33 944.586 2671.65 953.202 2671.45 953.01 2681.11 961.523 2680.93 961.373 2691.88 969.765 2691.72 969.646 2703.91 977.899 2703.76 977.805 2717.15 985.901 2717.01 985.825 2731.53 993.748 2731.41 993.685 2747.02 1001.42 2746.91 1001.37 2763.55 1008.89 2763.45 1008.85 2781.07 1016.14 2780.98 1016.11 2799.53 1023.16 2799.44 1023.13 2818.88 1029.93 2818.8 1029.9 2839.05 1036.42 2838.98 1036.39 2860.01 1042.62 2859.94 1042.6 2881.7 1048.51 2881.63 1048.49 2904.06 1054.07 2903.99 1054.05 2927.04 1059.29 2926.97 1059.27 2950.59 1064.14 2950.53 1064.13 2974.67 1068.62 2974.6 1068.61 2999.2 1072.7 2999.14 1072.69 3024.16 1076.36 3024.09 1076.35 3049.47 1079.59 3049.41 1079.59 3075.1 1082.38 3075.03 1082.37 3100.98 1084.69 3100.91 1084.69 3127.07 1086.52 3127 1086.52 3153.31 1087.85 3153.23 1087.85 3183.19 1088.68 3183 1095.55 3153 1094.72 3126.62 1093.38 3100.4 1091.54 3074.39 1089.21 3048.63 1086.42 3023.19 1083.17 2998.11 1079.49 2973.44 1075.39 2949.24 1070.88 2925.55 1066 2902.43 1060.75 2879.93 1055.15 2858.1 1049.22 2836.99 1042.97 2816.65 1036.43 2797.13 1029.61 2778.49 1022.52 2760.77 1015.18 2744.02 1007.6 2728.3 999.815 2713.65 991.823 2700.13 983.642 2687.78 975.284 2676.65 966.759 2666.8 958.077 2658.27 949.241 2651.13 940.255 2645.46 931.172 2643.15 926.5 2641.26 921.842 2639.77 917.151 2638.69 912.432 2638.04 907.691 2637.82 903.095 2637.62 898.655 2637.65 898.966 2637.03 894.529 2637.09 894.825 2636.07 890.392 2636.15 890.668 2634.74 886.241 2634.83 886.494 2633.04 882.076 2633.14 882.304 2630.96 877.897 2631.13 878.194 2625.65 869.421 2625.88 869.741 2618.96 861.037 2619.18 861.285 2610.86 852.668 2611.06 852.86 2601.4 844.348 2601.58 844.497 2590.63 836.106 2590.8 836.224 2578.6 827.972 2578.75 828.066 2565.37 819.969 2565.5 820.046 2550.98 812.123 2551.1 812.185 2535.49 804.453 2535.6 804.505 2518.96 796.981 2519.06 797.025 2501.44 789.726 2501.53 789.763 2482.98 782.707 2483.07 782.739 2463.64 775.944 2463.72 775.971 2443.46 769.453 2443.53 769.477 2422.5 763.253 2422.57 763.274 2400.81 757.363 2400.89 757.382 2378.45 751.8 2378.52 751.816 2355.47 746.582 2355.54 746.596 2331.92 741.726 2331.98 741.738 2307.85 737.249 2307.91 737.261 2283.31 733.171 2283.37 733.181 2258.36 729.507 2258.42 729.516 2233.04 726.275 2233.11 726.283 2207.42 723.494 2207.48 723.5 2181.53 721.179 2181.6 721.184 2155.45 719.349 2155.51 719.353 2129.2 718.02 2129.27 718.023 2102.86 717.211 2102.93 717.212 2076.46 716.937ZM3178.67 1078.31 3206.01 1092.37 3178.36 1105.81Z" fill="#156082"/><text fill="#595959" font-family="Aptos,Aptos_MSFontService,sans-serif" font-style="italic" font-weight="400" font-size="83" transform="matrix(1 0 0 1 3215.52 1118)">1111</text><path d="M0.039849-3.43727 55.3418-2.79614 110.249-0.926044 164.28 2.09014 190.85 4.00357 217.033 6.17234 242.783 8.58691 268.048 11.2371 292.774 14.1128 316.906 17.2038 340.392 20.5 363.177 23.9913 385.208 27.6676 406.432 31.519 426.795 35.5355 446.244 39.7074 464.727 44.0248 482.19 48.4784 498.581 53.0591 513.85 57.758 527.944 62.5675 540.815 67.4806 552.415 72.493 562.697 77.6037 571.583 82.7971 575.548 85.4663 579.129 88.1502 582.349 90.8732 585.2 93.6424 587.674 96.4674 589.758 99.359 591.432 102.327 592.668 105.376 593.432 108.499 593.67 111.388 593.885 114.005 593.798 113.468 594.438 116.084 594.285 115.61 595.344 118.224 595.153 117.827 596.624 120.436 596.419 120.115 598.296 122.719 598.093 122.464 600.368 125.062 600.177 124.861 602.844 127.451 602.669 127.292 605.721 129.873 605.563 129.747 608.993 132.318 608.851 132.218 612.653 134.777 612.468 134.661 621.159 139.74 620.955 139.63 631.051 144.648 630.884 144.571 642.331 149.517 642.194 149.461 654.938 154.326 654.822 154.284 668.809 159.057 668.71 159.025 683.886 163.695 683.8 163.67 700.111 168.228 700.035 168.208 717.426 172.643 717.359 172.627 735.777 176.929 735.716 176.915 755.107 181.075 755.051 181.063 775.36 185.069 775.309 185.059 796.483 188.902 796.435 188.893 818.419 192.562 818.374 192.555 841.116 196.039 841.073 196.033 864.516 199.323 864.475 199.318 888.567 202.404 888.528 202.399 913.214 205.27 913.176 205.266 938.403 207.912 938.365 207.908 964.078 210.319 964.041 210.316 990.187 212.482 990.15 212.479 1016.67 214.389 1016.62 214.385 1070.58 217.398 1070.51 217.395 1125.34 219.262 1125.26 219.26 1157.61 219.635 1157.53 226.51 1125.15 226.134 1070.24 224.264 1016.21 221.248 989.638 219.335 963.455 217.166 937.704 214.751 912.439 212.101 887.714 209.225 863.581 206.134 840.096 202.838 817.31 199.347 795.279 195.671 774.056 191.819 753.692 187.803 734.243 183.631 715.761 179.313 698.298 174.86 681.906 170.279 666.638 165.58 652.544 160.771 639.673 155.858 628.073 150.845 617.79 145.734 608.904 140.541 604.94 137.872 601.359 135.188 598.139 132.465 595.288 129.696 592.814 126.871 590.73 123.979 589.056 121.011 587.82 117.962 587.055 114.839 586.818 111.951 586.603 109.334 586.69 109.87 586.049 107.254 586.203 107.728 585.143 105.115 585.335 105.512 583.863 102.902 584.069 103.224 582.192 100.619 582.395 100.874 580.12 98.2765 580.311 98.4776 577.644 95.8874 577.819 96.0461 574.767 93.4649 574.925 93.5909 571.495 91.0199 571.636 91.1207 567.835 88.5612 568.02 88.6775 559.329 83.598 559.533 83.7085 549.437 78.6904 549.603 78.7676 538.156 73.8211 538.294 73.8771 525.55 69.0124 525.666 69.0542 511.679 64.2815 511.778 64.3136 496.602 59.6431 496.688 59.6683 480.377 55.1103 480.453 55.1305 463.061 50.6952 463.129 50.7117 444.711 46.4092 444.772 46.4229 425.381 42.2636 425.437 42.2751 405.127 38.2691 405.179 38.2789 384.005 34.4365 384.053 34.4448 362.068 30.7763 362.113 30.7835 339.372 27.2989 339.415 27.3052 315.971 24.0149 316.012 24.0205 291.92 20.9346 291.96 20.9395 267.273 18.0683 267.312 18.0726 242.085 15.4264 242.123 15.4301 216.409 13.0191 216.446 13.0223 190.301 10.8566 190.338 10.8595 163.814 8.94937 163.869 8.95291 109.903 5.94035 109.977 5.9437 55.1463 4.07619 55.2235 4.07795-0.039849 3.43727ZM1153.15 209.27 1180.49 223.338 1152.83 236.769Z" fill="#156082" transform="matrix(1 0 0 -1 2146.5 753.838)"/><text fill="#595959" font-family="Aptos,Aptos_MSFontService,sans-serif" font-style="italic" font-weight="400" font-size="83" transform="matrix(1 0 0 1 3342.16 565)">1110</text><path d="M0.0394512-3.43727 20.7063-3.20007 41.3705-2.49716 61.9523-1.34408 82.4118 0.244137 102.709 2.25249 122.803 4.666 142.656 7.46973 162.226 10.6488 181.474 14.1882 200.36 18.0733 218.844 22.2892 236.886 26.8211 254.446 31.6544 271.485 36.7745 287.963 42.167 303.841 47.8173 319.078 53.7114 333.636 59.8351 347.475 66.1749 360.556 72.7172 372.84 79.4493 384.288 86.359 394.862 93.4348 404.522 100.667 413.23 108.046 420.945 115.566 427.625 123.222 433.224 131.011 437.689 138.93 440.962 146.971 442.975 155.116 443.635 163.043 444.274 170.696 444.185 170.157 446.073 177.796 445.919 177.325 449.016 184.934 448.826 184.541 453.092 192.105 452.889 191.787 458.282 199.291 458.081 199.037 464.563 206.466 464.372 206.265 471.902 213.604 471.725 213.443 480.263 220.678 480.1 220.549 489.605 227.664 489.457 227.559 499.888 234.54 499.753 234.454 511.071 241.285 510.947 241.213 523.112 247.88 522.997 247.82 535.968 254.307 535.862 254.256 549.598 260.549 549.499 260.506 563.961 266.589 563.869 266.552 579.016 272.411 578.928 272.378 594.72 277.998 594.636 277.97 611.033 283.335 610.953 283.31 627.914 288.407 627.836 288.385 645.321 293.197 645.246 293.178 663.214 297.691 663.141 297.673 681.553 301.873 681.481 301.857 700.296 305.728 700.225 305.714 719.402 309.24 719.331 309.228 738.831 312.396 738.76 312.385 758.542 315.179 758.471 315.169 778.495 317.574 778.424 317.566 798.649 319.568 798.576 319.561 818.963 321.144 818.889 321.139 839.396 322.288 839.306 322.284 857.609 322.829 857.404 329.701 839.056 329.155 818.467 328.001 798.008 326.413 777.711 324.405 757.616 321.991 737.764 319.187 718.194 316.008 698.946 312.469 680.06 308.584 661.576 304.368 643.534 299.836 625.973 295.003 608.934 289.883 592.456 284.49 576.579 278.84 561.342 272.946 546.784 266.822 532.945 260.482 519.864 253.94 507.58 247.208 496.132 240.298 485.558 233.222 475.897 225.99 467.189 218.611 459.474 211.091 452.794 203.435 447.196 195.646 442.73 187.727 439.458 179.686 437.445 171.541 436.784 163.614 436.146 155.961 436.235 156.5 434.347 148.861 434.5 149.332 431.404 141.724 431.593 142.116 427.328 134.552 427.531 134.87 422.137 127.366 422.338 127.62 415.856 120.191 416.047 120.392 408.517 113.053 408.694 113.214 400.157 105.979 400.319 106.108 390.815 98.993 390.963 99.098 380.531 92.1173 380.667 92.2035 369.349 85.3724 369.473 85.4439 357.308 78.7772 357.423 78.8372 344.452 72.35 344.558 72.4007 330.821 66.1079 330.92 66.1513 316.458 60.0679 316.551 60.1053 301.404 54.2462 301.492 54.2787 285.7 48.6588 285.783 48.6873 269.387 43.3216 269.467 43.3466 252.506 38.2501 252.583 38.2723 235.099 33.4599 235.173 33.4795 217.205 28.9662 217.278 28.9837 198.867 24.7843 198.939 24.7999 180.124 20.9295 180.195 20.9433 161.018 17.4169 161.088 17.4291 141.589 14.2615 141.659 14.2722 121.877 11.4784 121.948 11.4877 101.925 9.08272 101.996 9.09054 81.771 7.08931 81.8434 7.0957 61.4571 5.51316 61.5309 5.51809 41.0237 4.36918 41.0991 4.37258 20.5113 3.67227 20.5887 3.67403-0.0394512 3.43727ZM853.159 312.439 880.42 326.657 852.689 339.935Z" fill="#156082" transform="matrix(1 0 0 -1 2367.5 597.157)"/><text fill="#595959" font-family="Aptos,Aptos_MSFontService,sans-serif" font-style="italic" font-weight="400" font-size="83" transform="matrix(1 0 0 1 3280.7 292)">0110</text></g></svg>