<svg width="1083" height="766" xmlns="http://www.w3.org/2000/svg" xmlns:xlink="http://www.w3.org/1999/xlink" xml:space="preserve" overflow="hidden"><g transform="translate(-1568 -1468)"><rect x="1571.5" y="1471.5" width="1076" height="746" stroke="#042433" stroke-width="6.875" stroke-miterlimit="8" fill="#00B0F0"/><path d="M2049.5 1732C2049.5 1616.3 2152.25 1522.5 2279 1522.5 2405.75 1522.5 2508.5 1616.3 2508.5 1732 2508.5 1847.7 2405.75 1941.5 2279 1941.5 2152.25 1941.5 2049.5 1847.7 2049.5 1732Z" stroke="#042433" stroke-width="6.875" stroke-miterlimit="8" fill="#FF0000" fill-rule="evenodd" fill-opacity="0.368627"/><path d="M1735.5 1732C1735.5 1616.3 1838.03 1522.5 1964.5 1522.5 2090.97 1522.5 2193.5 1616.3 2193.5 1732 2193.5 1847.7 2090.97 1941.5 1964.5 1941.5 1838.03 1941.5 1735.5 1847.7 1735.5 1732Z" stroke="#042433" stroke-width="6.875" stroke-miterlimit="8" fill="#FF0000" fill-rule="evenodd" fill-opacity="0.368627"/><path d="M1898.5 1977C1898.5 1861.3 2001.25 1767.5 2128 1767.5 2254.75 1767.5 2357.5 1861.3 2357.5 1977 2357.5 2092.7 2254.75 2186.5 2128 2186.5 2001.25 2186.5 1898.5 2092.7 1898.5 1977Z" stroke="#042433" stroke-width="6.875" stroke-miterlimit="8" fill="#FF0000" fill-rule="evenodd" fill-opacity="0.368627"/><text font-family="Aptos,Aptos_MSFontService,sans-serif" font-weight="400" font-size="83" transform="matrix(1 0 0 1 1705.38 1592)">A</text><text font-family="Aptos,Aptos_MSFontService,sans-serif" font-weight="400" font-size="83" transform="matrix(1 0 0 1 2470.85 1592)">B</text><text font-family="Aptos,Aptos_MSFontService,sans-serif" font-weight="400" font-size="83" transform="matrix(1 0 0 1 2319.89 2161)">C</text></g></svg>